<svg width="312" height="301" viewBox="0 0 312 301" fill="none" xmlns="http://www.w3.org/2000/svg">
<rect width="310" height="301" rx="10" fill="#F9F9F9"/>
<g filter="url(#filter0_d_3_450)">
<rect x="138" y="45" width="123.087" height="144" rx="7" fill="white"/>
<rect x="156.523" y="64.1204" width="86.0415" height="9.56017" rx="4.78008" fill="#EFEFEF"/>
<rect x="158" y="120" width="87" height="7" rx="3.5" fill="#EFEFEF"/>
<rect x="157" y="159" width="88" height="7" rx="3.5" fill="#EFEFEF"/>
<rect x="191" y="101" width="54" height="7" rx="3.5" fill="#EFEFEF"/>
<rect x="157" y="139" width="65" height="8" rx="4" fill="#EFEFEF"/>
<path d="M163 102H159C158.4 102 158 102.4 158 103V111C158 111.6 158.4 112 159 112H163C163.6 112 164 111.6 164 111V103C164 102.4 163.6 102 163 102ZM179 98H175C174.4 98 174 98.4 174 99V111C174 111.6 174.4 112 175 112H179C179.6 112 180 111.6 180 111V99C180 98.4 179.6 98 179 98ZM171 90H167C166.4 90 166 90.4 166 91V111C166 111.6 166.4 112 167 112H171C171.6 112 172 111.6 172 111V91C172 90.4 171.6 90 171 90Z" fill="#13C2A8"/>
</g>
<g filter="url(#filter1_d_3_450)">
<rect x="19" y="87" width="123" height="123" rx="7" fill="white"/>
<rect x="37.5229" y="106.12" width="86.0415" height="9.56017" rx="4.78008" fill="#EFEFEF"/>
<rect x="58.4355" y="162.286" width="67.5187" height="7.17012" rx="3.58506" fill="#EFEFEF"/>
<rect x="58.4355" y="143.166" width="67.5187" height="7.17012" rx="3.58506" fill="#EFEFEF"/>
<rect x="58.4355" y="181.407" width="50.1909" height="7.17012" rx="3.58506" fill="#EFEFEF"/>
<path d="M45.2456 144.779C45.3135 144.847 45.3673 144.927 45.4041 145.016C45.4408 145.104 45.4598 145.199 45.4598 145.295C45.4598 145.391 45.4408 145.486 45.4041 145.574C45.3673 145.663 45.3135 145.743 45.2456 145.811L41.8472 149.209C41.7796 149.277 41.6992 149.331 41.6107 149.368C41.5222 149.405 41.4273 149.423 41.3314 149.423C41.2356 149.423 41.1407 149.405 41.0521 149.368C40.9636 149.331 40.8832 149.277 40.8156 149.209L39.3592 147.753C39.2914 147.685 39.2377 147.605 39.201 147.516C39.1644 147.428 39.1455 147.333 39.1455 147.237C39.1455 147.141 39.1644 147.046 39.201 146.958C39.2377 146.869 39.2914 146.789 39.3592 146.721C39.4269 146.653 39.5073 146.6 39.5958 146.563C39.6843 146.526 39.7792 146.508 39.875 146.508C39.9708 146.508 40.0656 146.526 40.1541 146.563C40.2426 146.6 40.3231 146.653 40.3908 146.721L41.332 147.661L44.2151 144.777C44.2829 144.71 44.3633 144.656 44.4518 144.62C44.5402 144.583 44.635 144.565 44.7307 144.565C44.8264 144.565 44.9212 144.584 45.0095 144.621C45.0978 144.658 45.1781 144.711 45.2456 144.779ZM48.8569 146.751C48.8569 148.047 48.4725 149.314 47.7524 150.392C47.0322 151.47 46.0086 152.31 44.8111 152.806C43.6135 153.302 42.2957 153.432 41.0244 153.179C39.753 152.926 38.5852 152.302 37.6686 151.385C36.752 150.469 36.1278 149.301 35.875 148.03C35.6221 146.758 35.7519 145.44 36.2479 144.243C36.744 143.045 37.584 142.022 38.6618 141.302C39.7396 140.581 41.0067 140.197 42.303 140.197C44.0406 140.199 45.7065 140.89 46.9352 142.119C48.1639 143.347 48.855 145.013 48.8569 146.751ZM47.4005 146.751C47.4005 145.743 47.1015 144.757 46.5414 143.919C45.9813 143.081 45.1851 142.427 44.2537 142.041C43.3223 141.656 42.2973 141.555 41.3085 141.751C40.3197 141.948 39.4114 142.434 38.6985 143.146C37.9856 143.859 37.5001 144.768 37.3034 145.756C37.1067 146.745 37.2077 147.77 37.5935 148.702C37.9793 149.633 38.6327 150.429 39.4709 150.989C40.3092 151.55 41.2948 151.848 42.303 151.848C43.6545 151.847 44.9502 151.31 45.9059 150.354C46.8615 149.398 47.399 148.102 47.4005 146.751Z" fill="#13C2A8"/>
<path d="M45.2456 163.9C45.3135 163.967 45.3673 164.048 45.4041 164.136C45.4408 164.225 45.4598 164.32 45.4598 164.416C45.4598 164.511 45.4408 164.606 45.4041 164.695C45.3673 164.783 45.3135 164.864 45.2456 164.931L41.8472 168.33C41.7796 168.398 41.6992 168.451 41.6107 168.488C41.5222 168.525 41.4273 168.544 41.3314 168.544C41.2356 168.544 41.1407 168.525 41.0521 168.488C40.9636 168.451 40.8832 168.398 40.8156 168.33L39.3592 166.873C39.2914 166.805 39.2377 166.725 39.201 166.637C39.1644 166.548 39.1455 166.453 39.1455 166.357C39.1455 166.262 39.1644 166.167 39.201 166.078C39.2377 165.99 39.2914 165.909 39.3592 165.842C39.4269 165.774 39.5073 165.72 39.5958 165.683C39.6843 165.647 39.7792 165.628 39.875 165.628C39.9708 165.628 40.0656 165.647 40.1541 165.683C40.2426 165.72 40.3231 165.774 40.3908 165.842L41.332 166.782L44.2151 163.898C44.2829 163.83 44.3633 163.777 44.4518 163.74C44.5402 163.704 44.635 163.685 44.7307 163.685C44.8264 163.685 44.9212 163.704 45.0095 163.741C45.0978 163.778 45.1781 163.832 45.2456 163.9ZM48.8569 165.871C48.8569 167.168 48.4725 168.435 47.7524 169.512C47.0322 170.59 46.0086 171.43 44.8111 171.926C43.6135 172.422 42.2957 172.552 41.0244 172.299C39.753 172.046 38.5852 171.422 37.6686 170.506C36.752 169.589 36.1278 168.421 35.875 167.15C35.6221 165.879 35.7519 164.561 36.2479 163.363C36.744 162.166 37.584 161.142 38.6618 160.422C39.7396 159.702 41.0067 159.317 42.303 159.317C44.0406 159.319 45.7065 160.01 46.9352 161.239C48.1639 162.468 48.855 164.134 48.8569 165.871ZM47.4005 165.871C47.4005 164.863 47.1015 163.878 46.5414 163.039C45.9813 162.201 45.1851 161.548 44.2537 161.162C43.3223 160.776 42.2973 160.675 41.3085 160.872C40.3197 161.068 39.4114 161.554 38.6985 162.267C37.9856 162.98 37.5001 163.888 37.3034 164.877C37.1067 165.866 37.2077 166.891 37.5935 167.822C37.9793 168.754 38.6327 169.55 39.4709 170.11C40.3092 170.67 41.2948 170.969 42.303 170.969C43.6545 170.967 44.9502 170.43 45.9059 169.474C46.8615 168.519 47.399 167.223 47.4005 165.871Z" fill="#13C2A8"/>
<path d="M45.2456 183.02C45.3135 183.088 45.3673 183.168 45.4041 183.257C45.4408 183.345 45.4598 183.44 45.4598 183.536C45.4598 183.632 45.4408 183.727 45.4041 183.815C45.3673 183.904 45.3135 183.984 45.2456 184.052L41.8472 187.45C41.7796 187.518 41.6992 187.572 41.6107 187.609C41.5222 187.645 41.4273 187.664 41.3314 187.664C41.2356 187.664 41.1407 187.645 41.0521 187.609C40.9636 187.572 40.8832 187.518 40.8156 187.45L39.3592 185.994C39.2914 185.926 39.2377 185.845 39.201 185.757C39.1644 185.668 39.1455 185.574 39.1455 185.478C39.1455 185.382 39.1644 185.287 39.201 185.199C39.2377 185.11 39.2914 185.03 39.3592 184.962C39.4269 184.894 39.5073 184.84 39.5958 184.804C39.6843 184.767 39.7792 184.748 39.875 184.748C39.9708 184.748 40.0656 184.767 40.1541 184.804C40.2426 184.84 40.3231 184.894 40.3908 184.962L41.332 185.902L44.2151 183.018C44.2829 182.951 44.3633 182.897 44.4518 182.861C44.5402 182.824 44.635 182.805 44.7307 182.806C44.8264 182.806 44.9212 182.825 45.0095 182.862C45.0978 182.898 45.1781 182.952 45.2456 183.02ZM48.8569 184.992C48.8569 186.288 48.4725 187.555 47.7524 188.633C47.0322 189.711 46.0086 190.551 44.8111 191.047C43.6135 191.543 42.2957 191.673 41.0244 191.42C39.753 191.167 38.5852 190.543 37.6686 189.626C36.752 188.709 36.1278 187.542 35.875 186.27C35.6221 184.999 35.7519 183.681 36.2479 182.484C36.744 181.286 37.584 180.262 38.6618 179.542C39.7396 178.822 41.0067 178.438 42.303 178.438C44.0406 178.44 45.7065 179.131 46.9352 180.359C48.1639 181.588 48.855 183.254 48.8569 184.992ZM47.4005 184.992C47.4005 183.983 47.1015 182.998 46.5414 182.16C45.9813 181.321 45.1851 180.668 44.2537 180.282C43.3223 179.896 42.2973 179.795 41.3085 179.992C40.3197 180.189 39.4114 180.674 38.6985 181.387C37.9856 182.1 37.5001 183.008 37.3034 183.997C37.1067 184.986 37.2077 186.011 37.5935 186.942C37.9793 187.874 38.6327 188.67 39.4709 189.23C40.3092 189.79 41.2948 190.089 42.303 190.089C43.6545 190.088 44.9502 189.55 45.9059 188.595C46.8615 187.639 47.399 186.343 47.4005 184.992Z" fill="#13C2A8"/>
</g>
<g filter="url(#filter2_d_3_450)">
<rect x="169" y="128" width="128" height="125" rx="7" fill="white"/>
<rect x="183" y="146" width="96" height="13" rx="6.5" fill="#EFEFEF"/>
<rect x="183" y="180" width="63" height="10" rx="5" fill="#EFEFEF"/>
<rect x="183" y="200" width="86" height="10" rx="5" fill="#EFEFEF"/>
<rect x="183" y="219" width="63" height="10" rx="5" fill="#EFEFEF"/>
<g clip-path="url(#clip0_3_450)">
<path d="M265.93 236.07C264.975 235.148 264.213 234.044 263.689 232.824C263.165 231.604 262.889 230.292 262.877 228.964C262.866 227.636 263.119 226.32 263.622 225.091C264.124 223.862 264.867 222.745 265.806 221.806C266.745 220.867 267.861 220.125 269.09 219.622C270.319 219.119 271.636 218.866 272.964 218.878C274.292 218.889 275.604 219.165 276.824 219.689C278.044 220.213 279.147 220.975 280.07 221.93C281.891 223.816 282.899 226.342 282.877 228.964C282.854 231.586 281.802 234.094 279.948 235.948C278.094 237.802 275.586 238.854 272.964 238.877C270.342 238.9 267.816 237.892 265.93 236.07ZM267.34 234.66C268.841 236.161 270.877 237.005 273 237.005C275.123 237.005 277.159 236.161 278.66 234.66C280.161 233.159 281.004 231.123 281.004 229C281.004 226.877 280.161 224.841 278.66 223.34C277.159 221.839 275.123 220.996 273 220.996C270.877 220.996 268.841 221.839 267.34 223.34C265.839 224.841 264.995 226.877 264.995 229C264.995 231.123 265.839 233.159 267.34 234.66ZM277.24 226.17L274.41 229L277.24 231.83L275.83 233.24L273 230.41L270.17 233.24L268.76 231.83L271.59 229L268.76 226.17L270.17 224.76L273 227.59L275.83 224.76L277.24 226.17Z" fill="#13C2A8"/>
</g>
</g>
<rect x="53" y="26" width="49" height="49" rx="6" fill="#1C3D7A"/>
<path d="M68.75 38.25C67.8217 38.25 66.9315 38.6187 66.2751 39.2751C65.6187 39.9315 65.25 40.8217 65.25 41.75V59.25C65.25 60.1783 65.6187 61.0685 66.2751 61.7249C66.9315 62.3813 67.8217 62.75 68.75 62.75C69.6783 62.75 70.5685 62.3813 71.2249 61.7249C71.8813 61.0685 72.25 60.1783 72.25 59.25V41.75C72.25 40.8217 71.8813 39.9315 71.2249 39.2751C70.5685 38.6187 69.6783 38.25 68.75 38.25ZM77.5 43.5C76.5717 43.5 75.6815 43.8687 75.0251 44.5251C74.3687 45.1815 74 46.0717 74 47V59.25C74 60.1783 74.3687 61.0685 75.0251 61.7249C75.6815 62.3813 76.5717 62.75 77.5 62.75C78.4283 62.75 79.3185 62.3813 79.9749 61.7249C80.6313 61.0685 81 60.1783 81 59.25V47C81 46.0717 80.6313 45.1815 79.9749 44.5251C79.3185 43.8687 78.4283 43.5 77.5 43.5ZM86.25 48.75C85.3217 48.75 84.4315 49.1187 83.7751 49.7751C83.1187 50.4315 82.75 51.3217 82.75 52.25V59.25C82.75 60.1783 83.1187 61.0685 83.7751 61.7249C84.4315 62.3813 85.3217 62.75 86.25 62.75C87.1783 62.75 88.0685 62.3813 88.7249 61.7249C89.3813 61.0685 89.75 60.1783 89.75 59.25V52.25C89.75 51.3217 89.3813 50.4315 88.7249 49.7751C88.0685 49.1187 87.1783 48.75 86.25 48.75Z" fill="#13C2A8"/>
<defs>
<filter id="filter0_d_3_450" x="123.8" y="34.8" width="151.487" height="172.4" filterUnits="userSpaceOnUse" color-interpolation-filters="sRGB">
<feFlood flood-opacity="0" result="BackgroundImageFix"/>
<feColorMatrix in="SourceAlpha" type="matrix" values="0 0 0 0 0 0 0 0 0 0 0 0 0 0 0 0 0 0 127 0" result="hardAlpha"/>
<feOffset dy="4"/>
<feGaussianBlur stdDeviation="7.1"/>
<feComposite in2="hardAlpha" operator="out"/>
<feColorMatrix type="matrix" values="0 0 0 0 0 0 0 0 0 0 0 0 0 0 0 0 0 0 0.1 0"/>
<feBlend mode="normal" in2="BackgroundImageFix" result="effect1_dropShadow_3_450"/>
<feBlend mode="normal" in="SourceGraphic" in2="effect1_dropShadow_3_450" result="shape"/>
</filter>
<filter id="filter1_d_3_450" x="4.8" y="76.8" width="151.4" height="151.4" filterUnits="userSpaceOnUse" color-interpolation-filters="sRGB">
<feFlood flood-opacity="0" result="BackgroundImageFix"/>
<feColorMatrix in="SourceAlpha" type="matrix" values="0 0 0 0 0 0 0 0 0 0 0 0 0 0 0 0 0 0 127 0" result="hardAlpha"/>
<feOffset dy="4"/>
<feGaussianBlur stdDeviation="7.1"/>
<feComposite in2="hardAlpha" operator="out"/>
<feColorMatrix type="matrix" values="0 0 0 0 0 0 0 0 0 0 0 0 0 0 0 0 0 0 0.1 0"/>
<feBlend mode="normal" in2="BackgroundImageFix" result="effect1_dropShadow_3_450"/>
<feBlend mode="normal" in="SourceGraphic" in2="effect1_dropShadow_3_450" result="shape"/>
</filter>
<filter id="filter2_d_3_450" x="154.8" y="117.8" width="156.4" height="153.4" filterUnits="userSpaceOnUse" color-interpolation-filters="sRGB">
<feFlood flood-opacity="0" result="BackgroundImageFix"/>
<feColorMatrix in="SourceAlpha" type="matrix" values="0 0 0 0 0 0 0 0 0 0 0 0 0 0 0 0 0 0 127 0" result="hardAlpha"/>
<feOffset dy="4"/>
<feGaussianBlur stdDeviation="7.1"/>
<feComposite in2="hardAlpha" operator="out"/>
<feColorMatrix type="matrix" values="0 0 0 0 0 0 0 0 0 0 0 0 0 0 0 0 0 0 0.1 0"/>
<feBlend mode="normal" in2="BackgroundImageFix" result="effect1_dropShadow_3_450"/>
<feBlend mode="normal" in="SourceGraphic" in2="effect1_dropShadow_3_450" result="shape"/>
</filter>
<clipPath id="clip0_3_450">
<rect width="20" height="20" fill="white" transform="translate(263 219)"/>
</clipPath>
</defs>
</svg>
