<svg width="30" height="30" viewBox="0 0 127 225" fill="none" xmlns="http://www.w3.org/2000/svg">
<path d="M97.4399 62.13C97.4399 80.86 82.26 96.04 63.52 96.04C44.78 96.04 29.6 80.86 29.6 62.13C29.6 43.4 44.78 28.21 63.52 28.21C82.26 28.21 97.4399 43.4 97.4399 62.13Z" fill="#1A1A1A"/>
<path d="M63.52 0.320007C15.17 0.320007 -15.0501 52.66 9.11994 94.54L63.52 188.76L117.92 94.54C123.76 84.42 126.43 73.69 126.43 63.23C126.43 30.42 100.18 0.320007 63.52 0.320007ZM63.52 106.4C39.11 106.4 19.2499 86.54 19.2499 62.13C19.2499 37.72 39.11 17.86 63.52 17.86C87.93 17.86 107.79 37.72 107.79 62.13C107.79 86.54 87.93 106.4 63.52 106.4Z" fill="#1A1A1A"/>
<path d="M97.4399 62.13C97.4399 80.86 82.26 96.04 63.52 96.04C44.78 96.04 29.6 80.86 29.6 62.13C29.6 43.4 44.78 28.21 63.52 28.21C82.26 28.21 97.4399 43.4 97.4399 62.13Z" fill="#1A1A1A"/>
<path d="M63.52 28.22C44.79 28.22 29.6 43.4 29.6 62.14C29.6 80.87 44.78 96.05 63.52 96.05C82.26 96.05 97.4399 80.87 97.4399 62.14C97.4399 43.4 82.25 28.22 63.52 28.22ZM63.52 92.21C46.93 92.21 33.4301 78.72 33.4301 62.13C33.4301 45.54 46.93 32.04 63.52 32.04C80.11 32.04 93.6 45.54 93.6 62.13C93.6 78.72 80.11 92.21 63.52 92.21Z" fill="#1A1A1A"/>
<path d="M63.52 28.22C44.79 28.22 29.6 43.4 29.6 62.14C29.6 80.87 44.78 96.05 63.52 96.05C82.26 96.05 97.4399 80.87 97.4399 62.14C97.4399 43.4 82.25 28.22 63.52 28.22ZM63.52 92.21C46.93 92.21 33.4301 78.72 33.4301 62.13C33.4301 45.54 46.93 32.04 63.52 32.04C80.11 32.04 93.6 45.54 93.6 62.13C93.6 78.72 80.11 92.21 63.52 92.21Z" fill="#1A1A1A"/>
<path d="M97.4399 62.13C97.4399 80.86 82.26 96.04 63.52 96.04C44.78 96.04 29.6 80.86 29.6 62.13C29.6 43.4 44.78 28.21 63.52 28.21C82.26 28.21 97.4399 43.4 97.4399 62.13Z" fill="#1A1A1A"/>
<g opacity="0.51">
<path d="M63.52 224.36C85.3739 224.36 103.09 220.532 103.09 215.81C103.09 211.088 85.3739 207.26 63.52 207.26C41.6661 207.26 23.95 211.088 23.95 215.81C23.95 220.532 41.6661 224.36 63.52 224.36Z" fill="#999999"/>
</g>
</svg>
